<svg  height="601" viewBox="0 0 1728 601" fill="none" xmlns="http://www.w3.org/2000/svg">
<g filter="url(#filter0_d_1_25)">
<path d="M1756.94 49.3565C1734 27.9343 1721.77 45.7077 1723.28 49.7096C1726.31 56.8896 1700.97 35.232 1698.83 36.6444C1704.63 22.0491 1669.59 42.8828 1671.6 24.7563C1665.05 29.3468 1654.84 18.8711 1642.23 21.4606C1623.07 21.2252 1643.37 26.7573 1613.74 17.4586C1597.99 19.8127 1611.6 16.7524 1582.48 13.5744C1576.3 16.7524 1564.33 16.0462 1558.28 16.3993C1559.04 17.5764 1539.87 26.9927 1524.5 24.874C1528.28 33.8195 1520.71 34.8789 1495.5 29.3468C1470.17 47.1201 1492.98 25.2271 1465.75 30.1707C1446.97 45.9431 1449.24 38.2923 1435.63 31.9363C1413.57 33.4664 1389.24 42.5297 1386.47 45.0015C1389.37 44.5306 1392.64 44.0598 1396.55 43.3536C1387.98 45.8254 1385.21 46.0608 1386.47 45.0015C1376.63 46.6493 1371.34 48.4149 1359.99 60.0676C1356.84 72.5442 1338.57 63.7164 1320.04 71.6026C1307.05 78.0764 1283.35 85.8448 1288.14 72.5443C1304.15 56.4188 1238.35 39.4693 1255.5 69.2485C1221.21 58.1843 1237.34 59.3614 1224.36 64.305C1172.17 75.016 1202.8 52.2991 1186.92 52.8876C1120.62 44.8837 1199.65 53.2407 1155.28 37.3507C1148.1 69.7193 1126.92 21.696 1121.37 24.5209C1112.8 15.34 1090.24 30.2884 1077.13 20.2836C1059.73 24.0501 1031.24 13.2213 1029.48 25.1094C984.1 24.4032 994.31 28.1697 982.839 34.9966C966.704 44.2952 942.376 47.2378 941.494 46.0608C935.821 48.6503 911.745 38.41 910.106 56.1834C900.904 55.4771 888.803 64.1873 879.601 64.8935C863.718 74.0744 870.903 59.2437 844.179 68.0715C836.364 53.8293 785.942 55.9479 804.85 64.1872C784.303 64.5404 765.269 59.9499 774.471 55.5948C762.244 58.1843 748.756 44.766 745.353 35.5851C739.302 18.2826 729.47 25.3448 717.116 25.8157C702.116 17.5764 702.242 28.2874 688.25 17.6941C669.09 10.2787 659.131 8.27772 648.921 9.10165C639.341 10.9849 636.693 17.5764 608.205 17.4586C589.549 38.0569 598.625 32.9956 572.91 18.4003C534.967 5.21741 548.203 21.4606 537.993 13.2213C517.068 14.9869 528.539 -1.37404 504.084 10.5141C493.621 -1.13863 478.117 21.9314 461.099 16.3993C447.99 -12.6736 441.813 17.1055 414.963 27.5812C381.811 18.8711 370.718 25.8157 373.87 38.8808C383.198 41.4703 351.81 39.3516 334.541 52.0637C300.884 43.589 330.003 54.8886 295.085 67.8361C278.068 76.0754 266.345 68.5423 255.378 82.9022C228.15 87.4927 224.117 99.8516 215.041 93.731C199.41 105.737 183.149 103.265 173.821 96.909C141.173 67.1299 122.391 92.9071 125.92 91.6123C113.945 97.2622 103.987 90.4353 80.2884 82.3137C78.6496 57.2427 44.1107 78.7826 35.1608 73.0151C11.0844 73.4859 8.05906 72.3088 1 70.3079V569.492C5.28586 569.021 9.82382 568.55 14.9921 568.197C13.4794 566.667 52.9345 576.436 44.6149 579.261C64.2794 575.259 67.809 587.501 71.7166 589.148C79.406 597.388 106.256 582.204 107.516 593.739C98.1881 601.154 139.66 603.979 141.551 594.798C151.005 583.499 170.922 596.211 174.073 590.325C193.233 589.855 183.779 587.854 186.426 579.732C204.326 570.786 174.829 559.722 199.284 568.432C203.948 553.837 245.924 553.366 237.731 560.429C257.521 564.077 267.732 558.545 278.698 563.489C275.421 568.786 323.322 559.134 320.927 569.021C340.339 561.252 356.474 565.019 363.407 568.432C391.643 577.496 388.114 543.597 404.123 561.723C420.132 560.429 415.215 557.251 444.964 554.779C462.486 566.902 458.704 546.893 485.68 548.305C496.773 553.013 500.05 534.298 526.27 543.126C545.808 541.714 557.153 538.889 563.96 545.716C575.305 546.069 590.431 554.896 594.969 557.957C584.003 562.665 615.138 557.721 627.365 572.552C634.929 586.323 661.148 594.563 659.761 579.261C680.686 577.378 673.753 601.39 687.746 576.319C698.964 554.19 682.829 567.844 720.646 572.081C716.738 558.545 756.067 548.893 756.823 576.554C754.807 585.146 767.916 588.442 788.841 588.324C795.9 589.972 794.514 600.33 821.364 597.505C838.381 592.444 849.222 596.093 864.6 599.153C871.533 602.92 913.635 597.388 909.728 597.152C898.131 569.727 953.217 595.387 945.401 590.679C956.242 582.557 1017.63 571.61 980.57 577.378C974.772 558.663 1000.61 569.256 1015.61 562.312C1041.45 582.086 1005.53 544.774 1051.03 550.541C1054.06 543.008 1077.25 547.246 1085.83 546.069C1104.99 535.711 1094.4 562.9 1121.88 544.303C1130.83 553.602 1150.37 526.883 1157.17 539.006C1184.4 514.642 1173.56 514.288 1179.74 530.179C1183.14 524.176 1207.59 537.947 1203.56 524.646C1207.34 527.471 1230.03 517.231 1245.66 530.061C1266.34 535.475 1255.87 548.893 1289.4 536.064C1302.51 547.599 1333.78 534.887 1339.95 534.298C1354.45 538.065 1376.51 541.714 1390.37 531.473C1402.1 531.238 1413.82 518.173 1440.8 529.943C1486.81 518.408 1487.06 552.778 1491.34 532.18C1492.1 526.412 1535.08 549.6 1527.14 541.478C1520.08 538.418 1539.5 536.064 1558.53 556.662C1546.3 572.317 1583.99 544.892 1590.93 570.433C1593.07 582.557 1631.64 553.484 1624.71 574.435C1642.11 563.018 1632.27 569.374 1657.36 569.845C1631.77 578.084 1677.4 580.085 1693.03 564.901C1714.84 552.189 1720.01 567.491 1730.97 563.607C1735.39 572.434 1751.27 561.135 1764 559.605V50.1804C1761.73 49.945 1759.59 49.7096 1757.57 49.3565H1756.94Z" fill="white"/>
</g>
<defs>
<filter id="filter0_d_1_25" x="-1" y="0" width="1767" height="600.576" filterUnits="userSpaceOnUse" color-interpolation-filters="sRGB">
<feFlood flood-opacity="0" result="BackgroundImageFix"/>
<feColorMatrix in="SourceAlpha" type="matrix" values="0 0 0 0 0 0 0 0 0 0 0 0 0 0 0 0 0 0 127 0" result="hardAlpha"/>
<feOffset dy="-2"/>
<feGaussianBlur stdDeviation="1"/>
<feComposite in2="hardAlpha" operator="out"/>
<feColorMatrix type="matrix" values="0 0 0 0 0 0 0 0 0 0 0 0 0 0 0 0 0 0 0.25 0"/>
<feBlend mode="normal" in2="BackgroundImageFix" result="effect1_dropShadow_1_25"/>
<feBlend mode="normal" in="SourceGraphic" in2="effect1_dropShadow_1_25" result="shape"/>
</filter>
</defs>
</svg>
