<svg width="57" height="50" viewBox="0 0 57 50" fill="none" xmlns="http://www.w3.org/2000/svg">
<path d="M54.1331 9.88767H53.1898V8.96982H51.3032V19.3209C51.3032 19.5711 51.2038 19.8111 51.0269 19.988C50.8499 20.1649 50.61 20.2643 50.3598 20.2643H48.4732C48.223 20.2643 47.983 20.1649 47.8061 19.988C47.6292 19.8111 47.5298 19.5711 47.5298 19.3209V6.11437C47.5298 5.86418 47.6292 5.62424 47.8061 5.44733C47.983 5.27043 48.223 5.17104 48.4732 5.17104H50.3598C50.61 5.17104 50.8499 5.27043 51.0269 5.44733C51.2038 5.62424 51.3032 5.86418 51.3032 6.11437V7.05769H53.1898V6.11437C53.1898 5.36381 52.8916 4.64399 52.3609 4.11327C51.8302 3.58254 51.1104 3.28439 50.3598 3.28439H48.4732C48.1511 3.28751 47.832 3.34623 47.5298 3.45796V3.28439C47.5298 2.53383 47.2317 1.81401 46.701 1.28329C46.1702 0.752565 45.4504 0.454407 44.6999 0.454407H42.8132C42.0627 0.454407 41.3428 0.752565 40.8121 1.28329C40.2814 1.81401 39.9832 2.53383 39.9832 3.28439V8.94435H38.0966C38.0962 8.39821 37.9378 7.86384 37.6405 7.40572C37.3432 6.94759 36.9197 6.58528 36.421 6.36249C35.9224 6.1397 35.37 6.06595 34.8303 6.15014C34.2907 6.23433 33.787 6.47286 33.3799 6.83695C32.8617 6.37171 32.1898 6.11438 31.4933 6.11438C30.7968 6.11438 30.1249 6.37171 29.6066 6.83695C29.0884 6.37171 28.4164 6.11438 27.72 6.11438C27.0235 6.11438 26.3516 6.37171 25.8333 6.83695C25.4263 6.47286 24.9225 6.23433 24.3829 6.15014C23.8433 6.06595 23.2909 6.1397 22.7922 6.36249C22.2936 6.58528 21.8701 6.94759 21.5728 7.40572C21.2755 7.86384 21.1171 8.39821 21.1167 8.94435H17.3434V3.28439C17.3434 2.53383 17.0452 1.81401 16.5145 1.28329C15.9838 0.752565 15.264 0.454407 14.5134 0.454407H12.6268C11.8762 0.454407 11.1564 0.752565 10.6257 1.28329C10.0949 1.81401 9.79678 2.53383 9.79678 3.28439V3.45796C9.49467 3.34623 9.17554 3.28751 8.85345 3.28439H6.9668C6.21624 3.28439 5.49642 3.58254 4.9657 4.11327C4.43497 4.64399 4.13682 5.36381 4.13682 6.11437V9.88767H3.19349C2.44293 9.88767 1.72312 10.1858 1.19239 10.7166C0.661668 11.2473 0.36351 11.9671 0.36351 12.7177C0.36351 13.4682 0.661668 14.188 1.19239 14.7188C1.72312 15.2495 2.44293 15.5476 3.19349 15.5476H4.13682V16.4702H6.02347V6.11437C6.02347 5.86418 6.12286 5.62424 6.29976 5.44733C6.47667 5.27043 6.71661 5.17104 6.9668 5.17104H8.85345C9.10364 5.17104 9.34357 5.27043 9.52048 5.44733C9.69739 5.62424 9.79678 5.86418 9.79678 6.11437V19.3209C9.79678 19.5711 9.69739 19.8111 9.52048 19.988C9.34357 20.1649 9.10364 20.2643 8.85345 20.2643H6.9668C6.71661 20.2643 6.47667 20.1649 6.29976 19.988C6.12286 19.8111 6.02347 19.5711 6.02347 19.3209V18.3776H4.13682V19.3209C4.13682 20.0715 4.43497 20.7913 4.9657 21.322C5.49642 21.8528 6.21624 22.1509 6.9668 22.1509H8.85345C9.17554 22.1478 9.49467 22.0891 9.79678 21.9773V22.1509C9.79678 22.9015 10.0949 23.6213 10.6257 24.152C11.1564 24.6827 11.8762 24.9809 12.6268 24.9809H14.5134C15.264 24.9809 15.9838 24.6827 16.5145 24.152C17.0452 23.6213 17.3434 22.9015 17.3434 22.1509V16.491H18.3273L18.3141 20.2558C18.3141 20.4599 18.3803 20.6585 18.5027 20.8218L21.1318 24.3526L21.1167 27.7505L18.2952 48.4367C18.2785 48.5595 18.2861 48.6843 18.3176 48.8042C18.3491 48.924 18.4039 49.0364 18.4789 49.1351C18.5539 49.2337 18.6476 49.3166 18.7546 49.379C18.8616 49.4415 18.9799 49.4822 19.1027 49.4989C19.1449 49.5045 19.1875 49.5073 19.23 49.5074C19.458 49.5072 19.6782 49.4244 19.8499 49.2744C20.0216 49.1244 20.1332 48.9173 20.1639 48.6914L22.9939 27.9439C22.9999 27.9026 23.003 27.861 23.0033 27.8194L23.0166 24.0461C23.0166 23.842 22.9504 23.6434 22.8279 23.4801L20.2017 19.9483L20.2139 16.491H21.1167C21.1167 16.7411 21.2161 16.9811 21.393 17.158C21.5699 17.3349 21.8098 17.4343 22.06 17.4343C22.3102 17.4343 22.5501 17.3349 22.7271 17.158C22.904 16.9811 23.0033 16.7411 23.0033 16.491V8.94435C23.0033 8.69416 23.1027 8.45422 23.2796 8.27731C23.4566 8.10041 23.6965 8.00102 23.9467 8.00102C24.1969 8.00102 24.4368 8.10041 24.6137 8.27731C24.7906 8.45422 24.89 8.69416 24.89 8.94435C24.89 9.19453 24.9894 9.43447 25.1663 9.61138C25.3432 9.78829 25.5831 9.88767 25.8333 9.88767C26.0835 9.88767 26.3235 9.78829 26.5004 9.61138C26.6773 9.43447 26.7767 9.19453 26.7767 8.94435C26.7767 8.69416 26.876 8.45422 27.0529 8.27731C27.2299 8.10041 27.4698 8.00102 27.72 8.00102C27.9702 8.00102 28.2101 8.10041 28.387 8.27731C28.5639 8.45422 28.6633 8.69416 28.6633 8.94435C28.6633 9.19453 28.7627 9.43447 28.9396 9.61138C29.1165 9.78829 29.3565 9.88767 29.6066 9.88767C29.8568 9.88767 30.0968 9.78829 30.2737 9.61138C30.4506 9.43447 30.55 9.19453 30.55 8.94435C30.55 8.69416 30.6493 8.45422 30.8263 8.27731C31.0032 8.10041 31.2431 8.00102 31.4933 8.00102C31.7435 8.00102 31.9834 8.10041 32.1603 8.27731C32.3372 8.45422 32.4366 8.69416 32.4366 8.94435C32.4366 9.19453 32.536 9.43447 32.7129 9.61138C32.8898 9.78829 33.1298 9.88767 33.3799 9.88767C33.6301 9.88767 33.8701 9.78829 34.047 9.61138C34.2239 9.43447 34.3233 9.19453 34.3233 8.94435C34.3233 8.69416 34.4227 8.45422 34.5996 8.27731C34.7765 8.10041 35.0164 8.00102 35.2666 8.00102C35.5168 8.00102 35.7567 8.10041 35.9336 8.27731C36.1105 8.45422 36.2099 8.69416 36.2099 8.94435V19.9501L33.5686 23.4716C33.4461 23.6349 33.3799 23.8335 33.3799 24.0376V27.8109C33.3801 27.8675 33.3855 27.9241 33.396 27.9797L37.1693 48.7329C37.1869 48.8588 37.2298 48.9798 37.2954 49.0887C37.361 49.1976 37.448 49.2921 37.551 49.3666C37.654 49.4411 37.7711 49.4939 37.895 49.522C38.019 49.5501 38.1474 49.5528 38.2725 49.5301C38.3975 49.5073 38.5167 49.4595 38.6228 49.3895C38.729 49.3195 38.8198 49.2288 38.89 49.1228C38.9602 49.0168 39.0082 48.8977 39.0312 48.7727C39.0542 48.6476 39.0517 48.5192 39.0239 48.3952L35.2666 27.726V24.3517L37.9079 20.8303C38.0304 20.667 38.0966 20.4684 38.0966 20.2643V16.491H39.9832V22.1509C39.9832 22.9015 40.2814 23.6213 40.8121 24.152C41.3428 24.6827 42.0627 24.9809 42.8132 24.9809H44.6999C45.4504 24.9809 46.1702 24.6827 46.701 24.152C47.2317 23.6213 47.5298 22.9015 47.5298 22.1509V21.9773C47.832 22.0891 48.1511 22.1478 48.4732 22.1509H50.3598C51.1104 22.1509 51.8302 21.8528 52.3609 21.322C52.8916 20.7913 53.1898 20.0715 53.1898 19.3209V15.5476H54.1331C54.8837 15.5476 55.6035 15.2495 56.1342 14.7188C56.665 14.188 56.9631 13.4682 56.9631 12.7177C56.9631 11.9671 56.665 11.2473 56.1342 10.7166C55.6035 10.1858 54.8837 9.88767 54.1331 9.88767ZM3.19349 13.661C2.9433 13.661 2.70337 13.5616 2.52646 13.3847C2.34955 13.2078 2.25016 12.9678 2.25016 12.7177C2.25016 12.4675 2.34955 12.2275 2.52646 12.0506C2.70337 11.8737 2.9433 11.7743 3.19349 11.7743H4.13682V13.661H3.19349ZM15.4567 22.1509C15.4567 22.4011 15.3574 22.641 15.1804 22.818C15.0035 22.9949 14.7636 23.0942 14.5134 23.0942H12.6268C12.3766 23.0942 12.1366 22.9949 11.9597 22.818C11.7828 22.641 11.6834 22.4011 11.6834 22.1509V3.28439C11.6834 3.0342 11.7828 2.79426 11.9597 2.61735C12.1366 2.44045 12.3766 2.34106 12.6268 2.34106H14.5134C14.7636 2.34106 15.0035 2.44045 15.1804 2.61735C15.3574 2.79426 15.4567 3.0342 15.4567 3.28439V22.1509ZM19.3027 14.6043C19.2942 14.6043 19.2866 14.6043 19.2782 14.6043C19.2687 14.6043 19.2621 14.6043 19.2527 14.6043H17.3434V10.831H21.1167V14.6043H19.3027ZM38.0966 14.6043V10.831H39.9832V14.6043H38.0966ZM45.6432 22.1509C45.6432 22.4011 45.5438 22.641 45.3669 22.818C45.19 22.9949 44.9501 23.0942 44.6999 23.0942H42.8132C42.563 23.0942 42.3231 22.9949 42.1462 22.818C41.9693 22.641 41.8699 22.4011 41.8699 22.1509V3.28439C41.8699 3.0342 41.9693 2.79426 42.1462 2.61735C42.3231 2.44045 42.563 2.34106 42.8132 2.34106H44.6999C44.9501 2.34106 45.19 2.44045 45.3669 2.61735C45.5438 2.79426 45.6432 3.0342 45.6432 3.28439V22.1509ZM54.1331 13.661H53.1898V11.7743H54.1331C54.3833 11.7743 54.6233 11.8737 54.8002 12.0506C54.9771 12.2275 55.0765 12.4675 55.0765 12.7177C55.0765 12.9678 54.9771 13.2078 54.8002 13.3847C54.6233 13.5616 54.3833 13.661 54.1331 13.661Z" fill="white"/>
</svg>
